<svg width="512" height="491" viewBox="0 0 512 491" fill="none" xmlns="http://www.w3.org/2000/svg">
<path d="M97.0498 446.184L158.032 423.125L118.394 386.545L97.0498 446.184Z" fill="#FCB736"/>
<path d="M263.013 199.977C255.173 174.612 270.092 147.779 296.554 140.233C322.907 132.686 350.784 147.046 358.625 172.515C360.867 179.683 361.333 187.256 359.987 194.628C358.64 202 355.518 208.966 350.87 214.968C346.223 220.969 340.18 225.839 333.224 229.188C326.269 232.537 318.596 234.271 310.819 234.251C289.257 234.251 269.438 220.835 263.013 199.977ZM335.974 79.5458C291.544 94.0101 242.432 119.165 203.555 158.156C172.193 189.6 148.127 219.262 130.05 244.942C124.06 245.047 117.635 245.466 110.993 246.514C104.35 247.562 97.4893 249.134 90.6288 251.545C46.1987 267.267 -2.91399 308.878 0.135132 317.158C3.07536 325.439 31.8243 310.136 56.3261 308.249C70.5917 307.096 81.6992 308.459 90.1932 310.66C87.3619 316.32 84.9661 321.141 83.2238 325.019C81.3725 328.897 80.0657 331.727 79.1946 333.509L167.837 415.369C171.431 413.482 179.489 409.918 191.032 403.839C192.339 407.822 193.537 412.539 194.19 417.884C194.952 423.23 195.279 429.309 194.952 436.227C193.972 459.81 179.271 488.109 187.983 490.625C196.695 493.14 237.858 444.192 252.341 400.8C256.806 387.593 257.895 374.177 257.568 362.647C283.486 344.095 313.215 319.883 344.577 288.335C383.454 249.344 407.52 201.13 420.696 157.737C432.24 119.689 435.289 85.5202 432.457 64.4526C428.946 64.145 425.42 64.0051 421.894 64.0334C399.788 63.9285 369.188 68.75 335.974 79.5458Z" fill="#EDEDED"/>
<path d="M60.249 436.855L138.22 404.782L90.3047 360.551L60.249 436.855Z" fill="#D08A06"/>
<path d="M50.8799 403.524L111.971 380.57L72.3326 343.99L50.8799 403.524Z" fill="#FCB736"/>
<path d="M443.672 78.4971C443.89 92.3325 442.365 108.369 439.207 125.244C476.994 176.917 492.567 243.264 476.341 309.611C448.028 425.221 333.359 499.534 213.572 484.126C212.918 484.86 212.265 485.489 211.612 486.222C344.14 509.91 474.054 429.308 505.199 301.645C525.345 218.843 499.536 136.249 443.672 78.4971V78.4971ZM13.3096 204.693C43.3653 81.6415 171.429 5.33718 299.274 34.3706C323.776 39.9257 346.535 48.9397 367.008 60.7837C384.649 56.9056 401.637 54.5996 416.339 54.1803C387.807 32.1695 353.831 15.8186 315.826 7.22387C179.16 -23.801 42.2763 57.744 10.1516 189.285C1.76649 223.559 1.3309 257.833 7.64694 290.326C8.19143 289.801 8.73591 289.382 9.2804 288.858C5.36009 261.607 6.34017 233.097 13.3096 204.693Z" fill="#FCB736"/>
</svg>
