<svg width="252" height="260" viewBox="0 0 252 260" fill="none" xmlns="http://www.w3.org/2000/svg">
<path d="M34.2667 256.986V258.933H27V256.986C27 251.81 23.4222 245.137 14.3333 245.137H7.13334V258.933H0V211.813H15.6C26.9333 211.813 34.2667 219.491 34.2667 228.582C34.2667 235.319 30.0667 239.896 26.0889 242.057C32.1778 245.393 34.2667 251.318 34.2667 256.986ZM15.8667 218.208H7.13334V238.934H15.8667C22.5778 238.934 26.8444 233.822 26.8444 228.56C26.8667 222.849 22.6667 218.208 15.8667 218.208ZM40.7111 235.448C40.7111 221.908 51.2667 211 65.8222 211C80.3778 211 90.9333 221.908 90.9333 235.448C90.9333 248.923 80.3778 259.809 65.8222 259.809C51.2667 259.809 40.7111 248.901 40.7111 235.448V235.448ZM48.2 235.448C48.2 245.607 55.6889 253.093 65.8222 253.093C75.9556 253.093 83.4445 245.629 83.4445 235.448C83.4445 225.224 75.9556 217.738 65.8222 217.738C55.6889 217.738 48.2 225.202 48.2 235.448V235.448ZM98.6889 235.448C98.6889 221.908 109.244 211 123.8 211C127.378 211 131.067 211.813 133.533 212.946V220.283C130.733 218.657 127.733 217.716 123.8 217.716C113.667 217.716 106.178 225.181 106.178 235.426C106.178 245.586 113.667 253.072 123.8 253.072C127.711 253.072 130.733 252.131 133.533 250.505V257.842C131.089 258.997 127.378 259.788 123.8 259.788C109.267 259.809 98.6889 248.901 98.6889 235.448V235.448ZM142.556 211.813H149.689V233.48L166 211.813H174.178L157.467 233.544L175.644 258.933H167.044L152.978 238.463L149.689 242.506V258.933H142.556V211.813ZM183.311 211.813H210.444V218.336H190.444V231.191H209.8V237.522H190.444V252.195H210.867V258.933H183.311V211.813ZM232.556 218.208H220.467V211.813H251.8V218.208H239.689V258.933H232.556V218.208Z" fill="#2A2A2B"/>
<path d="M63 173L86 164.107L71.05 150L63 173Z" fill="#FCB736"/>
<path d="M126.942 77.5706C123.903 67.762 129.685 57.3859 139.942 54.4677C150.156 51.5494 160.961 57.1022 164 66.9513C164.869 69.723 165.05 72.6515 164.528 75.5023C164.006 78.3531 162.796 81.0468 160.994 83.3676C159.193 85.6884 156.851 87.5717 154.155 88.8666C151.459 90.1615 148.485 90.832 145.471 90.8243C137.114 90.8243 129.432 85.6363 126.942 77.5706ZM155.221 31C138 36.5934 118.964 46.3209 103.896 61.3986C91.7405 73.558 82.4126 85.0283 75.4061 94.9585C73.0847 94.9991 70.5945 95.1612 68.0198 95.5665C65.4451 95.9718 62.786 96.5798 60.1269 97.512C42.9062 103.592 23.8706 119.683 25.0524 122.885C26.192 126.087 37.3348 120.169 46.8315 119.439C52.3607 118.994 56.6659 119.521 59.9581 120.372C58.8607 122.56 57.9321 124.425 57.2568 125.924C56.5393 127.424 56.0328 128.518 55.6951 129.208L90.0522 160.862C91.445 160.133 94.5684 158.755 99.0424 156.404C99.5489 157.944 100.013 159.768 100.266 161.835C100.562 163.902 100.689 166.253 100.562 168.928C100.182 178.048 94.484 188.991 97.8606 189.964C101.237 190.937 117.192 172.009 122.805 155.229C124.536 150.122 124.958 144.934 124.831 140.475C134.877 133.301 146.399 123.938 158.555 111.739C173.623 96.6608 182.951 78.0164 188.058 61.2364C192.532 46.5235 193.714 33.3103 192.617 25.1635C191.256 25.0445 189.889 24.9904 188.523 25.0014C179.955 24.9608 168.094 26.8253 155.221 31Z" fill="url(#paint0_linear_201_35)"/>
<path d="M48 169L78 156.81L59.5642 140L48 169Z" fill="#D08A06"/>
<path d="M45 156L68 147.132L53.0766 133L45 156Z" fill="#FCB736"/>
<path d="M196.537 30.2086C196.622 35.5766 196.031 41.7985 194.808 48.3458C209.443 68.3942 215.474 94.1359 209.19 119.878C198.224 164.732 153.815 193.565 107.423 187.587C107.17 187.872 106.917 188.116 106.664 188.4C157.99 197.591 208.304 166.318 220.366 116.787C228.168 84.6607 218.173 52.6157 196.537 30.2086V30.2086ZM29.8645 79.1708C41.5046 31.4286 91.1016 1.82362 140.614 13.0882C150.103 15.2435 158.918 18.7408 166.847 23.3361C173.679 21.8314 180.258 20.9367 185.952 20.7741C174.902 12.2342 161.744 5.89025 147.025 2.55562C94.096 -9.48158 41.0829 22.1567 28.6415 73.1928C25.3941 86.4907 25.2254 99.7885 27.6715 112.395C27.8823 112.192 28.0932 112.029 28.3041 111.826C26.7858 101.253 27.1654 90.1913 29.8645 79.1708Z" fill="#FCB736"/>
<defs>
<linearGradient id="paint0_linear_201_35" x1="75.1323" y1="107.519" x2="193.66" y2="23.883" gradientUnits="userSpaceOnUse">
<stop stop-color="#D21B1D"/>
<stop offset="1" stop-color="#C9181A"/>
</linearGradient>
</defs>
</svg>
