<svg xmlns="http://www.w3.org/2000/svg" data-name="Layer 1" viewBox="0 0 631.483 593.941">
  <defs/>
  <path fill="#ccc" d="M506.094 459.94a26 26 0 1126-26 26.03 26.03 0 01-26 26z"/>
  <path fill="#fff" d="M518.094 432.94h-11v-12.5a1 1 0 00-2 0v12.5h-11a1 1 0 100 2h11v12.5a1 1 0 002 0v-12.5h11a1 1 0 000-2z"/>
  <path fill="#ffb8b8" d="M606.22 581.779l-11.432-.001-5.436-44.096 16.872.001-.004 44.096z"/>
  <path fill="#2f2e41" d="M586.622 578.511h22.048v13.882h-35.93a13.882 13.882 0 0113.882-13.882z"/>
  <path fill="#ffb8b8" d="M560.72 581.779l-11.432-.001-5.436-44.096 16.872.001-.004 44.096z"/>
  <path fill="#2f2e41" d="M541.122 578.511h22.048v13.882h-35.93a13.882 13.882 0 0113.882-13.882z"/>
  <path fill="#ffb8b8" d="M615.027 429.328a9.377 9.377 0 011.976-14.242l-3.54-21.133 12.317-5.284 4.581 29.915a9.428 9.428 0 01-15.334 10.744zM518.589 419.343a9.377 9.377 0 00.404-14.373l6.983-20.258-11.275-7.247-9.46 28.747a9.428 9.428 0 0013.348 13.13z"/>
  <circle cx="577.139" cy="245.542" r="24.561" fill="#ffb8b8"/>
  <path fill="#3f3d56" d="M517.83 404.187a4.502 4.502 0 01-1.246-.177l-7.158-2.055a4.508 4.508 0 01-3.088-5.551l14.774-52.162 20.602-50.575c2.048-5.028 6.328-8.326 11.17-8.605a11.446 11.446 0 0110.778 6.277 15.62 15.62 0 01.357 13.77l-23.417 51.21-18.617 45.084a4.498 4.498 0 01-4.155 2.784z"/>
  <path fill="#2f2e41" d="M591 266.14l-13.647.242a9.074 9.074 0 01-8.896-11.59 21.128 21.128 0 00.655-3.012 15.224 15.224 0 00.09-3.354 4.952 4.952 0 00-9.554-1.408c-2.295.033-7.183-.715-9.478-.683-4.872-12.49 5.745-28.833 17.174-34.972 11.651-6.258 26.775.11 31.241 13.152 6.199.111 11.235 6.225 12.034 13.106s-2.033 14.068-6.363 19.342-10.018 9.119-13.257 9.177zM546.141 577.662a4.515 4.515 0 01-4.461-4.01l-5.063-170.235 63.787 4.54.049.41c14.415 120.663 9.487 162.432 9.436 162.84a4.498 4.498 0 01-5.076 4.202l-14.096.338a4.498 4.498 0 01-3.99-4.296l-13.17-123.3a1.406 1.406 0 00-1.467-1.056 1.463 1.463 0 00-1.44 1.178l-5.088 123.703a4.48 4.48 0 01-4.04 4.67l-14.933.993a4.456 4.456 0 01-.448.023z"/>
  <path fill="#3f3d56" d="M572.61 423.757c-.382 0-.763-.005-1.145-.017-18.342-.552-32.692-14.43-36.653-18.67a4.478 4.478 0 01-1.081-4.097l10.581-44.764-2.807-38.917a38.37 38.37 0 0110.506-29.633 31.664 31.664 0 0124.386-9.866c17.855.852 31.941 16.812 32.069 36.333.197 30.234-.693 32.312-.985 32.994-8.911 20.797-4.044 49.99-2.34 58.442a4.516 4.516 0 01-1.338 4.187c-9.8 9.299-20.29 14.008-31.193 14.008z"/>
  <path fill="#3f3d56" d="M618.675 412.379a4.497 4.497 0 01-4.38-3.495l-10.918-47.557-14.63-54.357a15.621 15.621 0 012.627-13.523 11.456 11.456 0 0111.666-4.41c4.73 1.076 8.406 5.035 9.595 10.333l11.955 53.229 5.963 53.94a4.509 4.509 0 01-3.963 4.966l-7.4.844a4.487 4.487 0 01-.515.03z"/>
  <path fill="#ffb8b8" d="M30.832 417.507a10.743 10.743 0 001.582-16.396l4.167-93.018-21.216 2.381 1.233 90.985a10.8 10.8 0 0014.234 16.048zM69.534 574.966l12.075 2.123 11.934-45.564-15.821-3.133-8.188 46.574z"/>
  <path fill="#2f2e41" d="M102.925 592.395l-37.95-6.672 2.578-14.662 23.287 4.094a14.887 14.887 0 0112.085 17.24z"/>
  <path fill="#ffb8b8" d="M36.392 581.01h12.26l5.832-47.288-18.094.001.002 47.287z"/>
  <path fill="#2f2e41" d="M72.296 592.393l-38.53.002-.001-14.887 23.644-.001a14.887 14.887 0 0114.887 14.886zM88.545 568.06a4.748 4.748 0 01-.573-.033l-14.43-1.187a4.88 4.88 0 01-4.242-5.66l13.325-74.68-9.004-47.475a1.627 1.627 0 00-3.219.16L59.146 565.813a4.924 4.924 0 01-5.21 4.437l-13.594-.506a4.888 4.888 0 01-4.537-4.631l-.913-151.768 70.48-8.81 4.924 76.04-.02.081-16.99 83.675a4.886 4.886 0 01-4.741 3.73z"/>
  <circle cx="58.129" cy="223.255" r="24.561" fill="#ffb8b8"/>
  <path fill="#6c63ff" d="M81.272 424.437a20.11 20.11 0 01-10.857-3.105c-11.898-7.436-25.41-4.481-32.407-2.057a4.88 4.88 0 01-4.22-.481 4.81 4.81 0 01-2.225-3.552L18.84 301.617c-2.132-19.038 9.336-36.937 27.268-42.56q1.01-.317 2.055-.601a39.569 39.569 0 0132.972 5.722 40.204 40.204 0 0117.167 29.353l10.71 114.387a4.807 4.807 0 01-1.527 4.008c-3.754 3.473-14.651 12.51-26.213 12.511z"/>
  <path fill="#6c63ff" d="M42.53 325.983l-28.703-3.156a5.717 5.717 0 01-4.905-7.134l7.306-27.846a15.879 15.879 0 0131.556 3.563l1.085 28.675a5.717 5.717 0 01-6.338 5.898z"/>
  <path fill="#ffb8b8" d="M108.898 413.524a10.743 10.743 0 00-.406-16.467l-7.073-92.843-20.788 4.68 12.203 90.414a10.8 10.8 0 0016.064 14.216z"/>
  <path fill="#6c63ff" d="M72.66 320.146a5.711 5.711 0 01-1.818-4.4l1.085-28.675a15.879 15.879 0 0131.556-3.563l7.306 27.846a5.717 5.717 0 01-4.905 7.134l-28.704 3.156a5.711 5.711 0 01-4.52-1.498z"/>
  <path fill="#2f2e41" d="M56.668 248.741a5.683 5.683 0 01-1.296-.15l-.125-.031c-21.595-3.304-26.367-15.812-27.414-21.035-1.085-5.409.15-10.629 2.94-12.656-1.521-4.803-1.277-9.061.727-12.662 3.495-6.28 11.081-8.404 12.098-8.664 6.059-4.469 13.307-1.486 14.626-.88 11.718-4.336 16.197-.727 17.007.078 5.239.941 8.431 2.965 9.492 6.016 1.99 5.731-4.306 12.86-4.575 13.16l-.14.156-9.38.447a6.358 6.358 0 00-5.98 7.317 29.604 29.604 0 00.96 3.356c1.602 5.006 2.802 9.283 1.254 10.909a2.51 2.51 0 01-2.626.455c-1.466-.392-2.462-.31-2.958.245-.77.859-.535 3.034.662 6.125a5.739 5.739 0 01-1.046 5.847 5.568 5.568 0 01-4.226 1.967z"/>
  <path fill="#ccc" d="M141 593.94H1a1 1 0 010-2h140a1 1 0 110 2zM629 593.94H489a1 1 0 010-2h140a1 1 0 110 2z"/>
  <path fill="#fff" d="M428.713 424h-242a35.04 35.04 0 01-35-35V35a35.04 35.04 0 0135-35h242a35.04 35.04 0 0135 35v354a35.04 35.04 0 01-35 35z"/>
  <path fill="#ccc" d="M390.713 281.03h-166c-16.957-.082-17.027-25.912 0-26h166c16.945.079 17.037 25.91 0 26zM390.713 72.97h-166c-16.957-.081-17.027-25.911 0-26h166c16.945.08 17.037 25.912 0 26zM390.713 329.03h-166c-16.957-.082-17.027-25.912 0-26h166c16.945.079 17.037 25.91 0 26zM390.713 377.03h-166c-16.957-.082-17.027-25.912 0-26h166c16.945.079 17.037 25.91 0 26z"/>
  <path fill="#6c63ff" d="M387.713 223.83h-160a16.519 16.519 0 01-16.5-16.5v-89.6a16.519 16.519 0 0116.5-16.5h160a16.519 16.519 0 0116.5 16.5v89.6a16.519 16.519 0 01-16.5 16.5z"/>
  <path fill="#e6e6e6" d="M428.713 424h-242a35.04 35.04 0 01-35-35V35a35.04 35.04 0 0135-35h242a35.04 35.04 0 0135 35v354a35.04 35.04 0 01-35 35zm-242-418a29.033 29.033 0 00-29 29v354a29.033 29.033 0 0029 29h242a29.033 29.033 0 0029-29V35a29.033 29.033 0 00-29-29z"/>
</svg>
