<svg xmlns="http://www.w3.org/2000/svg" data-name="Layer 1" viewBox="274 41 504 465">
  <defs/>
  <circle cx="524.425" cy="287.859" r="158.77" fill="#6c63ff" opacity=".3"/>
  <path fill="#6c63ff" d="M459.223 85.873L353.51 214.137l156.455 184.645 104.303-122.626L459.223 85.873z"/>
  <path d="M459.223 85.873L353.51 214.137l156.455 184.645 104.303-122.626L459.223 85.873z" opacity=".1"/>
  <path fill="#f2f2f2" d="M357.739 215.547a53.131 53.131 0 018.619-11.508l97.093-98.433s33.828-5.638 40.876 11.276L380.291 218.366z"/>
  <path fill="#6c63ff" d="M352.805 213.433l143.77 219.882s14.095 9.867 28.19 4.229l147.293-99.37-156.455-236.797-140.95 109.941z"/>
  <path fill="#3f3d56" d="M407.81 200.519l90.216-64.827 1.333 1.855-90.216 64.827zM404.71 226.043l1.904-1.26L525.012 403.79l-1.905 1.26zM537.49 409.152l95.824-70.503 1.354 1.84-95.825 70.504zM513.257 140.086l1.875-1.304L637.76 314.969l-1.875 1.305zM365.72 206.572l111.533-102.363.952 1.038L366.672 207.61zM369.977 207.993l116.567-102.907.933 1.057L370.91 209.05zM372.828 208.002l121.008-100.865.902 1.083-121.007 100.865z"/>
  <path fill="#fff" d="M998.306 295.837c-6.487-2.405-14.536-6.512-19.526-10.862l3.517 9.72h-62.804v2.284h62.804l-3.517 9.722c4.99-4.35 13.04-8.457 19.526-10.864zM117.65 294.695H54.844l3.517-9.723c-4.99 4.35-13.039 8.458-19.526 10.865 6.487 2.405 14.536 6.512 19.526 10.862l-3.517-9.72h62.804z"/>
</svg>
