<svg width="253" height="260" viewBox="0 0 253 260" fill="none" xmlns="http://www.w3.org/2000/svg">
<path d="M34.7423 256.986V258.933H27.4756V256.986C27.4756 251.81 23.8978 245.137 14.8089 245.137H7.60893V258.933H0.475586V211.813H16.0756C27.4089 211.813 34.7423 219.491 34.7423 228.582C34.7423 235.319 30.5422 239.896 26.5645 242.057C32.6534 245.393 34.7423 251.318 34.7423 256.986ZM16.3423 218.208H7.60893V238.934H16.3423C23.0534 238.934 27.32 233.822 27.32 228.56C27.3423 222.849 23.1423 218.208 16.3423 218.208ZM41.1867 235.448C41.1867 221.908 51.7423 211 66.2978 211C80.8534 211 91.4089 221.908 91.4089 235.448C91.4089 248.923 80.8534 259.809 66.2978 259.809C51.7423 259.809 41.1867 248.901 41.1867 235.448V235.448ZM48.6756 235.448C48.6756 245.607 56.1645 253.093 66.2978 253.093C76.4312 253.093 83.92 245.629 83.92 235.448C83.92 225.224 76.4312 217.738 66.2978 217.738C56.1645 217.738 48.6756 225.202 48.6756 235.448V235.448ZM99.1645 235.448C99.1645 221.908 109.72 211 124.276 211C127.853 211 131.542 211.813 134.009 212.946V220.283C131.209 218.657 128.209 217.716 124.276 217.716C114.142 217.716 106.653 225.181 106.653 235.426C106.653 245.586 114.142 253.072 124.276 253.072C128.187 253.072 131.209 252.131 134.009 250.505V257.842C131.564 258.997 127.853 259.788 124.276 259.788C109.742 259.809 99.1645 248.901 99.1645 235.448V235.448ZM143.031 211.813H150.164V233.48L166.476 211.813H174.653L157.942 233.544L176.12 258.933H167.52L153.453 238.463L150.164 242.506V258.933H143.031V211.813ZM183.787 211.813H210.92V218.336H190.92V231.191H210.276V237.522H190.92V252.195H211.342V258.933H183.787V211.813ZM233.031 218.208H220.942V211.813H252.276V218.208H240.165V258.933H233.031V218.208Z" fill="#EBEBEB"/>
<path d="M63.0996 172.743L87.04 163.802L71.4788 149.62L63.0996 172.743Z" fill="#FCB736"/>
<path d="M128.253 77.2857C125.175 67.4515 131.032 57.0484 141.421 54.1225C151.766 51.1966 162.71 56.7639 165.789 66.6388C166.669 69.4176 166.852 72.3538 166.323 75.212C165.794 78.0703 164.569 80.771 162.744 83.0979C160.92 85.4247 158.547 87.3129 155.817 88.6112C153.086 89.9095 150.074 90.5818 147.021 90.5741C138.556 90.5741 130.776 85.3725 128.253 77.2857ZM156.896 30.5936C139.454 36.2015 120.173 45.9544 104.911 61.0715C92.5993 73.2626 83.1513 84.763 76.0547 94.7191C73.7034 94.7597 71.1811 94.9223 68.5733 95.3286C65.9655 95.735 63.2722 96.3446 60.5789 97.2792C43.1366 103.375 23.856 119.508 25.053 122.718C26.2073 125.928 37.4935 119.995 47.1124 119.264C52.7128 118.817 57.0734 119.345 60.4079 120.199C59.2964 122.393 58.3559 124.262 57.6719 125.766C56.9451 127.269 56.4321 128.367 56.0901 129.058L90.8892 160.795C92.3 160.064 95.4636 158.682 99.9951 156.325C100.508 157.869 100.978 159.698 101.235 161.77C101.534 163.843 101.662 166.2 101.534 168.882C101.149 178.025 95.3781 188.997 98.7981 189.973C102.218 190.948 118.378 171.97 124.064 155.147C125.817 150.026 126.244 144.825 126.116 140.355C136.291 133.162 147.961 123.775 160.274 111.543C175.536 96.4258 184.984 77.7327 190.156 60.9089C194.688 46.1576 195.885 32.9099 194.774 24.7418C193.395 24.6225 192.011 24.5683 190.627 24.5793C181.948 24.5386 169.935 26.408 156.896 30.5936Z" fill="#EDEDED"/>
<path d="M48.6533 169.126L79.2629 156.691L60.4525 139.542L48.6533 169.126Z" fill="#D08A06"/>
<path d="M44.9746 156.203L68.9578 147.303L53.3965 133.121L44.9746 156.203Z" fill="#FCB736"/>
<path d="M199.176 30.1871C199.261 35.5512 198.663 41.7687 197.423 48.3113C212.258 68.3454 218.371 94.0688 212.001 119.792C200.886 164.615 155.869 193.427 108.844 187.453C108.587 187.738 108.331 187.981 108.074 188.266C160.102 197.45 211.103 166.2 223.33 116.704C231.239 84.6003 221.107 52.5782 199.176 30.1871V30.1871ZM30.225 79.1143C42.0242 31.4062 92.2991 1.82232 142.488 13.0788C152.107 15.2326 161.042 18.7274 169.079 23.3194C176.005 21.8158 182.674 20.9218 188.446 20.7593C177.245 12.2254 163.907 5.88605 148.987 2.5538C95.3344 -9.47481 41.5967 22.1409 28.9852 73.1406C25.6934 86.429 25.5224 99.7173 28.0019 112.315C28.2157 112.112 28.4294 111.949 28.6432 111.746C27.1042 101.18 27.4889 90.127 30.225 79.1143Z" fill="#FCB736"/>
</svg>
