<svg width="252" height="49" viewBox="0 0 252 49" fill="none" xmlns="http://www.w3.org/2000/svg">
<path d="M34.378 46.0813V48.0277H27.1113V46.0813C27.1113 40.9052 23.5336 34.2319 14.4447 34.2319H7.24467V48.0277H0.111328V0.908003H15.7113C27.0447 0.908003 34.378 8.58661 34.378 17.6769C34.378 24.4144 30.178 28.9916 26.2002 31.1519C32.2891 34.4886 34.378 40.4133 34.378 46.0813ZM15.978 7.30328H7.24467V28.0291H15.978C22.6891 28.0291 26.9558 22.9172 26.9558 17.6555C26.978 11.9447 22.778 7.30328 15.978 7.30328ZM40.8224 24.5427C40.8224 11.0036 51.378 0.0952148 65.9336 0.0952148C80.4891 0.0952148 91.0447 11.0036 91.0447 24.5427C91.0447 38.0177 80.4891 48.9047 65.9336 48.9047C51.378 48.9047 40.8224 37.9963 40.8224 24.5427ZM48.3113 24.5427C48.3113 34.7025 55.8002 42.1886 65.9336 42.1886C76.0669 42.1886 83.5558 34.7238 83.5558 24.5427C83.5558 14.3188 76.0669 6.83272 65.9336 6.83272C55.8002 6.83272 48.3113 14.2974 48.3113 24.5427ZM98.8002 24.5427C98.8002 11.0036 109.356 0.0952148 123.911 0.0952148C127.489 0.0952148 131.178 0.908001 133.645 2.04161V9.37801C130.845 7.75245 127.845 6.81134 123.911 6.81134C113.778 6.81134 106.289 14.2761 106.289 24.5213C106.289 34.6811 113.778 42.1672 123.911 42.1672C127.822 42.1672 130.845 41.2261 133.645 39.6005V46.9369C131.2 48.0919 127.489 48.8833 123.911 48.8833C109.378 48.9047 98.8002 37.9963 98.8002 24.5427ZM142.667 0.908003H149.8V22.575L166.111 0.908003H174.289L157.578 22.6391L175.756 48.0277H167.156L153.089 27.5586L149.8 31.6011V48.0277H142.667V0.908003ZM183.422 0.908003H210.556V7.43161H190.556V20.2863H209.911V26.6175H190.556V41.2902H210.978V48.0277H183.422V0.908003ZM232.667 7.30328H220.578V0.908003H251.911V7.30328H239.8V48.0277H232.667V7.30328Z" fill="#2A2A2B"/>
</svg>
